<svg width="25" height="24" viewBox="0 0 25 24" fill="none" xmlns="http://www.w3.org/2000/svg">
<g clip-path="url(#clip0_2_416)">
<path d="M12.5616 5.76825C9.03718 5.76825 6.16983 8.5638 6.16983 12C6.16983 15.4362 9.03718 18.2293 12.5616 18.2293C16.0861 18.2293 18.951 15.4338 18.951 12C18.9534 8.5638 16.0861 5.76825 12.5616 5.76825ZM12.5616 15.8536C10.3813 15.8536 8.60907 14.1258 8.60907 12C8.60907 9.87422 10.3813 8.14641 12.5616 8.14641C14.742 8.14641 16.5142 9.87422 16.5142 12C16.5142 14.1258 14.742 15.8536 12.5616 15.8536ZM17.7861 0H7.33718C3.4319 0 0.253418 3.09889 0.253418 6.90637V17.0936C0.253418 20.9011 3.4319 24 7.33718 24H17.7861C21.6914 24 24.8699 20.9011 24.8699 17.0936V6.90637C24.8699 3.09889 21.6939 0 17.7861 0ZM22.4331 17.0936C22.4331 19.5907 20.3473 21.6218 17.7861 21.6218H7.33718C4.77597 21.6218 2.69266 19.5907 2.69266 17.0936V6.90637C2.69266 4.4093 4.77597 2.37816 7.33718 2.37816H17.7861C20.3473 2.37816 22.4306 4.4093 22.4306 6.90637V17.0936H22.4331ZM19.0406 3.96764C18.1196 3.96764 17.3679 4.69808 17.3679 5.59838C17.3679 6.49626 18.1171 7.22912 19.0406 7.22912C19.9615 7.22912 20.7132 6.49869 20.7132 5.59838C20.7132 4.69808 19.9615 3.96764 19.0406 3.96764Z" fill="#C0C0C0"/>
</g>
<defs>
<clipPath id="clip0_2_416">
<rect width="24.6164" height="24" fill="white" transform="translate(0.253418)"/>
</clipPath>
</defs>
</svg>
