<svg width="25" height="24" viewBox="0 0 25 24" fill="none" xmlns="http://www.w3.org/2000/svg">
<g clip-path="url(#clip0_2_411)">
<path d="M24.7397 4.55654C23.834 4.94873 22.8607 5.21203 21.8395 5.3327C22.8832 4.72384 23.682 3.75844 24.059 2.60928C23.0829 3.17426 21.9999 3.58291 20.8522 3.80506C19.9323 2.84789 18.6187 2.25 17.1672 2.25C14.3767 2.25 12.1151 4.45232 12.1151 7.173C12.1151 7.5597 12.1601 7.93544 12.2444 8.29473C8.04747 8.08903 4.32589 6.1308 1.8364 3.14958C1.4032 3.87637 1.15284 4.72384 1.15284 5.62616C1.15284 7.33481 2.04456 8.84051 3.39761 9.72363C2.57059 9.69895 1.79139 9.47679 1.11065 9.10654V9.16962C1.11065 11.5557 2.85189 13.5441 5.16135 13.9966C4.7394 14.1091 4.29214 14.1694 3.83081 14.1694C3.5045 14.1694 3.18945 14.1392 2.88283 14.0816C3.52419 16.0371 5.3892 17.4605 7.59739 17.5017C5.87022 18.8209 3.69578 19.608 1.32725 19.608C0.919366 19.608 0.519922 19.5861 0.123291 19.5395C2.35961 20.9354 5.01226 21.75 7.86463 21.75C17.1531 21.75 22.2334 14.2489 22.2334 7.74346C22.2334 7.52954 22.2277 7.31835 22.2193 7.10717C23.2067 6.41055 24.0646 5.54388 24.7397 4.55654Z" fill="#C0C0C0"/>
</g>
<defs>
<clipPath id="clip0_2_411">
<rect width="24.6164" height="24" fill="white" transform="translate(0.123291)"/>
</clipPath>
</defs>
</svg>
